<?xml version="1.0" standalone="no"?>
<!DOCTYPE svg PUBLIC "-//W3C//DTD SVG 20010904//EN"
 "http://www.w3.org/TR/2001/REC-SVG-20010904/DTD/svg10.dtd">
<svg version="1.0" xmlns="http://www.w3.org/2000/svg"
 width="390.000000pt" height="390.000000pt" viewBox="0 0 390.000000 390.000000"
 preserveAspectRatio="xMidYMid meet">
<metadata>
Created by potrace 1.14, written by Peter Selinger 2001-2017
</metadata>
<g transform="translate(0.000000,390.000000) scale(0.100000,-0.100000)"
fill="#000000" stroke="none">
<path d="M1726 3708 c-35 -73 -264 -641 -509 -1262 l-444 -1129 -84 -32 c-191
-71 -324 -151 -428 -253 -95 -94 -125 -159 -125 -272 0 -75 4 -93 32 -152 145
-300 748 -525 1532 -569 91 -5 172 -10 180 -11 8 0 98 2 200 6 509 20 996 120
1273 262 26 14 53 22 60 18 7 -4 9 -3 5 1 -5 5 22 26 58 48 93 55 209 173 241
244 22 48 26 73 27 148 0 78 -3 98 -26 148 -46 99 -169 212 -307 284 -24 12
-48 26 -55 31 -6 5 -33 17 -61 27 -27 10 -54 21 -60 25 -5 4 -21 10 -35 13
-23 6 -45 65 -327 879 -166 480 -303 879 -305 887 -2 9 104 78 292 191 243
147 295 182 295 200 0 20 -16 27 -170 71 -172 50 -1182 329 -1190 329 -2 0
-33 -60 -69 -132z"/>
</g>
</svg>
